<?xml version="1.0" encoding="utf-8"?>
<!-- Generator: Adobe Illustrator 19.2.1, SVG Export Plug-In . SVG Version: 6.00 Build 0)  -->
<svg version="1.1" id="layer" xmlns="http://www.w3.org/2000/svg" xmlns:xlink="http://www.w3.org/1999/xlink" x="0px" y="0px"
	 viewBox="0 0 652 652" style="enable-background:new 0 0 652 652;" xml:space="preserve">
<style type="text/css">
	.st0{fill:#292E33;}
	.st1{fill:#E20246;}
</style>
<path class="st0" d="M207.1,313.9h-11.8v46.4h11.8L207.1,313.9z M233.5,360.4v-30.8c0,0,3.2-6,9.3-6c5.1,0,9.3,2.9,9.3,9.6v27.3
	h11.8v-30.2c0-11.2-8.1-17.6-17.1-17.6c-5.7,0-11.1,3-14,8v-6.8h-11v46.7L233.5,360.4L233.5,360.4z M292.3,360.4v-36.2h9.6v-10.4
	h-9.6v-9.9c0-5.7,4.1-8.4,8.1-8.4s7.7,2.7,7.7,8.4v56.6h11.8v-57.6c0-11.5-8.5-18-19.5-18s-19.9,6.5-19.9,18v10.9h-9.2v10.4h9.2
	v36.2L292.3,360.4L292.3,360.4z M350.2,361.6c9.5,0,14-8,14-8v6.8h11v-46.7h-11.8v31.1c0,0-3.2,5.7-9.3,5.7c-6,0-9.3-3-9.3-9.8v-27
	h-11.8v30.2C333.1,355.2,341.3,361.6,350.2,361.6 M409,361.6c6.8,0,13.4-2.4,18.7-6.7l-5.9-8.9l-0.1,0c-3.5,3.1-8.1,4.8-12.7,4.7
	c-7.4,0-12.2-5.3-13.1-9.5h34.9c0.1-1.8,0.1-3.5,0.1-4.4c0-14.4-10.7-24.3-23.5-24.3c-13.5,0-23.4,10.8-23.4,24.5
	C383.9,350.7,394.8,361.6,409,361.6 M419,332.7h-23.1c0.4-4.1,3.8-9.5,11.4-9.5C415.1,323.3,418.8,328.7,419,332.7 M451.3,360.4
	v-30.8c0,0,3.1-6,9.3-6c5.1,0,9.3,2.9,9.3,9.6v27.3h11.8v-30.2c0-11.2-8.1-17.6-17.1-17.6c-5.7,0-11.1,3-14,8v-6.8h-11v46.7
	L451.3,360.4L451.3,360.4z M515.4,361.6c7.4,0,14.5-3.2,19.3-8.9l-7.8-7.9c-2.7,3.7-7,5.8-11.5,5.7c-8,0-13.1-6.2-13.1-13.5
	c0-7.3,5.1-13.5,13.1-13.5c4.2,0,8.2,1.8,10.9,4.9l8.2-7.3c-4.8-5.5-11.8-8.7-19.1-8.7c-14,0-25.1,10.7-25.1,24.5
	C490.3,350.7,501.4,361.6,515.4,361.6 M564.4,361.6c6.8,0,13.4-2.4,18.7-6.7l-5.9-8.9l-0.1,0c-3.5,3.1-8.1,4.8-12.8,4.7
	c-7.4,0-12.2-5.3-13.1-9.5h34.9c0.1-1.8,0.1-3.5,0.1-4.4c0-14.4-10.7-24.3-23.5-24.3c-13.5,0-23.4,10.8-23.4,24.5
	C539.3,350.7,550.2,361.6,564.4,361.6 M574.4,332.7h-23.1c0.4-4.1,3.8-9.5,11.4-9.5C570.5,323.3,574.2,328.7,574.4,332.7
	 M606.7,360.4v-30.5c0,0,3.2-6.3,10.4-6.3c1.9,0,3.8,0.3,5.6,1.1l4.1-10.6c-2.6-0.9-5.3-1.4-8.1-1.5c-8.7,0-12.7,8-12.7,8v-6.8
	h-11.2v46.7L606.7,360.4z M201.2,302.8c4,0,7.2-3.2,7.2-7.2c0-4-3.2-7.2-7.2-7.2c-4,0-7.2,3.2-7.2,7.2c0,0,0,0,0,0
	C194,299.6,197.2,302.8,201.2,302.8"/>
<path class="st1" d="M106,294.3c5.4,0,9.8-4.4,9.8-9.8c0-5.4-4.4-9.8-9.8-9.8c-5.4,0-9.8,4.4-9.8,9.8
	C96.3,290,100.6,294.3,106,294.3 M156.5,284.6c-10.9,0-21.1,5.8-26.5,15.3l-13.8,23.8c-3.5,6.1-8.4,8.6-13,7.3
	c-0.8-0.2-1.6,0.2-1.9,1c-0.1,0.4-0.1,0.8,0.1,1.2l11.7,20.2c5.9,10.2,15.4,10.2,21.3,0l39-67.4l0,0c0.3-0.5,0.1-1-0.3-1.3
	c-0.1-0.1-0.3-0.1-0.5-0.1L156.5,284.6L156.5,284.6z M44,376.3c10.9,0,21.1-5.1,26.5-14.6l13.8-23.8c3.5-6.1,8.4-8.6,13-7.3
	c0.8,0.2,1.6-0.2,1.9-1c0.1-0.4,0.1-0.8-0.1-1.2l-11.7-20.2c-5.9-10.2-15.4-10.2-21.3,0l-39,66.6l0,0c-0.3,0.5-0.1,1,0.3,1.3
	c0.1,0.1,0.3,0.1,0.5,0.1H44z"/>
</svg>
